<svg id="Capa_1" data-name="Capa 1" xmlns="http://www.w3.org/2000/svg" xmlns:xlink="http://www.w3.org/1999/xlink" viewBox="0 0 1000 665"><defs><style>.cls-1{fill:#222539;}.cls-2{fill:#fff;}.cls-3{fill:#ed715d;}.cls-4{fill:#d4d3d4;}.cls-10,.cls-5{font-size:22.72px;}.cls-5,.cls-8{font-family:LarkeNeue-Regular, Larke Neue;}.cls-6,.cls-7,.cls-9{font-family:LarkeNeueBold-Bold, Larke Neue Bold;font-weight:700;}.cls-10,.cls-6{letter-spacing:0em;}.cls-8{font-weight:400;}.cls-9{font-size:49.82px;}</style></defs><image width="880" height="587" transform="scale(1.14 1.13)" xlink:href="../../../../Downloads/ONU-SIDA-ODS.jpg"/><path class="cls-1" d="M143.48,664.39c-5.64-8.84-12.08-17.38-14.07-27.79-1.59-8.3-2.91-16.67-3.78-25.06-.38-3.68-1.13-6.64-4.06-9.37-12.16-11.32-22.87-23.73-31.2-37.85a7.37,7.37,0,0,0-3.63-3.07c-5.9-2-11.9-3.67-17.89-5.39-10.07-2.89-20.18-5.64-30.23-8.59-5.06-1.49-7.23-5.36-6.14-11.36.88-4.84,2.43-9.58,3.56-14.4,5-21.54,10.54-42.95,17.21-64.14,5-15.94,8-32.43,12-48.65,4.85-19.51,12.52-38.12,21.28-56.35,2.48-5.15,5.27-10.16,7.51-15.39,4-9.33,10.77-10.86,20.83-9.88,5.22.51,10.33,2,15.47,3.11,23.72,5.21,47.27,11.29,71.2,15.45,27.47,4.78,54.49,11.15,81.7,16.84,22.55,4.72,45.49,7.78,68.06,12.41,18.39,3.77,36.6,8.42,54.68,13.34a234.55,234.55,0,0,0,36.79,7.39,55.85,55.85,0,0,1,7.4,1.29c9.11,2.29,13.33,6.8,13.13,15.64-.22,10.09-1.22,20.18-2.15,30.25-1.42,15.39-7.09,29.69-13.27,43.87-2.93,6.74-5.28,13.69-8,20.52-12,30.43-24.63,60.58-39,90.1-3.53,7.24-6,14.94-8.94,22.42-3.26,8.28-7.69,10.69-16.74,9.17-8.15-1.37-16.37-2.46-24.44-4.17-3.68-.77-6.19.46-9.1,2-11.1,6-22.24,12-33.54,17.73-4.61,2.33-10.67,2.89-14.23,6.06-3.34,3-4.26,8.34-6.24,12.65l-.57,1.29ZM92.1,475.31c1.55-1.8,2.78-3.27,4.06-4.7,6.6-7.35,14.17-13.35,24.41-15.9,15.11-3.75,32.19,3,38.11,15.83,7.18,15.52,13.59,31.24,17.43,47.94,4.44,19.35,14.12,36.13,32.47,47.47,19,11.74,38.74,14.74,60,5.26A98.68,98.68,0,0,0,296.29,553c12.39-11.6,26.26-21.38,42.4-28,13.07-5.38,26.16-7.07,38.82,1.15.34.21,1,0,1.53,0L391.21,519c1-3-2.19-6.09,2.2-8.61.92,2.51,1.74,4.77,2.57,7,6.21,2.12,4.44-5.3,8.11-6.11a3.38,3.38,0,0,1,.75.31c2.33,2.06-2.65,6.36,1.91,7.06,2.17.34,4.86-2.26,8.55-4.16l-3.13,7.66c4,5.73,3.9,12,1.6,18.24a47.3,47.3,0,0,1-24.43,26.75,32,32,0,0,1-9.25,2.85c-11.26,1.65-18.61-4.72-18-15.32.11-2,.38-4,.69-7-4.3.73-7.76,1-11,1.92a55.15,55.15,0,0,0-33.44,25c-5.93,9.77-10.21,20.42-15.08,30.74-.76,1.59-.74,3.5-1.17,5.72,8.68,1.4,17,2.05,24.89,4.2s14.06,1,20.15-3.87a39,39,0,0,1,9.74-5.25,5.12,5.12,0,0,1,4.55,1.13c.74,1,.51,3.3-.29,4.41-2.07,2.86-4.69,5.38-7.89,8.92,8,1.21,15.1,2.18,22.16,3.39,7.9,1.36,9.62.53,12.4-6.49,3.13-7.93,5.77-16.08,9.56-23.72,14.19-28.6,26.13-58,38-87.48,2.84-7,5.18-14.25,8.22-21.2,6.19-14.19,11.79-28.51,13.3-43.89.91-9.36,1.9-18.74,2.17-28.13.23-7.88-2.85-10.91-11.13-12.63-2.7-.56-5.48-.81-8.18-1.35-11-2.2-22.13-4.21-33.08-6.75-20.49-4.75-40.77-10.34-61.36-14.62-20.35-4.23-41.16-6.6-61.46-11-29.88-6.49-59.72-13-89.83-18.5-22.93-4.2-45.45-10.24-68.2-15.26a119.12,119.12,0,0,0-16.36-2.19c-5.28-.41-9.1,1.84-11.34,6.53-4.93,10.3-10.61,20.32-14.87,30.85a370.13,370.13,0,0,0-14,40.16C64.66,425,62.06,442,57.61,458.59c-4.63,17.29-10.79,34.21-14,51.85-1.53,8.31-4.3,16.42-6.36,24.64-1.47,5.9-.31,7.42,6,9,2.43.6,4.78,1.44,7.17,2.13l35.34,10.15,0-10.54c5.7,1.2,7,5.41,9.7,8.24,2.28,2.4,4.45,5.53,7.4,6.6,8.11,2.93,16.6,5,26.18,7.69,1.59-16.29,3.25-31.71,4.54-47.15a92.62,92.62,0,0,0-.16-16.23c-.7-7.6-6.54-11.24-14.33-9.06-3,.84-5.71,2.6-8.75,4,1,4.09,1.94,7.48,2.68,10.9,1.3,6.08,1.52,12.17-.77,18.11-3.52,9.16-11.54,12.55-21.11,8.55a38.88,38.88,0,0,1-10.54-6.63,58,58,0,0,1-18.19-31.06C59.79,488.68,60,478.2,70,470.59c.63-3.17-2.49-5.7.31-9.08L76,470.62l3.7-8.86,1.41.37,0,7.88c3.08,1.5,4-.16,5-1.92s1.45-3.93,4.09-4C92.79,467.73,84.07,472.09,92.1,475.31ZM374.81,529.6c-4.76-3.61-10.21-5.66-16.08-4.84-6.64.93-13.45,2.18-19.58,4.62C323.9,535.46,311,545,299.31,555.83a104.43,104.43,0,0,1-28.23,18.66c-22.67,10.33-43.78,7.51-64.28-5-19.06-11.62-29.53-28.71-34.35-48.76-3.89-16.17-10.37-31.33-16.52-46.72-5.23-13.1-22.6-19-35.62-15.23-11.13,3.26-18.81,10.36-25.06,18.87l13.53,18.62c2-1,3.88-2,5.87-2.94,11-4.92,21.12-.08,23,11.07a25.9,25.9,0,0,1,.39,6.33c-1.3,16.17-2,32.41-4.25,48.47-2.66,19.41-5.2,38.78-3.73,58.35,1.05,14,4.63,27.39,13.35,39.13,1.05,1.41,2.77,3.32,4.25,3.38,8.87.32,17.75.17,27.88.17-6.71-6-12.31-11-17.83-16-7.85-7.2-13.29-15.86-17.34-25.34-1.11-2.59-2-5.17-.85-7.06,8.84,1.33,16.92,3.32,25.07,3.55,7.45.21,15-1.27,22.45-2.39,10.92-1.63,21.07-.85,29.66,7.06,7.73-3.88,15.85-3.54,23.31-.27a75.4,75.4,0,0,1,16.74,10.46c6.87,5.53,13,11.83,22.79,12.73.57.05,1.06.81,2.16,1.7-5,6.22-11.52,10.91-18.52,17.16H284a76.8,76.8,0,0,0,9-29c2-18.53,7.92-35.84,17-52.3,11.55-20.93,28.15-35.35,54.63-36.68C368,539,371.36,534.39,374.81,529.6ZM267,644c-6.2-5.42-11.27-10.65-17.18-14.84-10.26-7.29-21.37-11.74-34-4.4-.17.1-.49,0-1.34-.13-4.84-8.12-13.42-9-22.53-8.39-2.76.18-5.5.6-8.23,1-10.48,1.57-21,2.92-31.51.64a27.18,27.18,0,0,0-4.39,0,26.35,26.35,0,0,0,2.65,2.78c15,10.57,31.1,19.06,50.17,21.41,5.74.7,11.45,1.59,17.21,2.13C233.86,645.67,249.9,646.33,267,644ZM147.45,624.23c1.09,1.92,1.64,2.95,2.25,3.94,7.16,11.66,18.09,20,28.66,28.69A18.58,18.58,0,0,0,190.73,661c18.63.09,37.28.08,55.89.82,12,.48,18.28-6.85,26.94-14.13a46.13,46.13,0,0,0-4.66,0c-19.62,2.6-39.21,1.65-58.74-.55-12-1.35-24-2.91-34.9-8.29C166.21,634.4,157.39,629.49,147.45,624.23ZM65,489.47c1.2,16.53,7.79,30.26,21.1,40.86a25.29,25.29,0,0,0,7.78,4.09c6.87,2.24,11.83,0,14.35-6.38a21,21,0,0,0,1.37-7.56c0-16.11-6.46-29.68-18.95-40.66a31.35,31.35,0,0,0-8.17-4.92c-7.4-3.18-13.5-.7-16.06,6.55C65.52,484.07,65.45,487,65,489.47Zm301.15,64.62c-.08,9.51,5.32,13.72,13.64,12.27,14.76-2.57,30.7-19.48,31.45-33.37.44-8.08-4.34-12.41-12.85-11.31a25.77,25.77,0,0,0-7.83,2.28c-10.41,5-17.92,12.71-22.29,22.9A50.4,50.4,0,0,0,366.18,554.09ZM330,621.68c-.09-.56-.17-1.13-.26-1.69l-29.47-4.62c-1.08,6.73-3.69,12.39-2.17,19C309.63,631.33,320.31,627.6,330,621.68Zm26.56-9.47-.88-1.52C346.48,616.2,337.62,622.34,328,627c-9.93,4.82-20.64,8.23-31.73,12.53-.18,1.11-.5,3.06-1.06,6.44C318,636.75,338.22,626,356.57,612.21Zm-251.39-46a105.82,105.82,0,0,0,20.58,24.22c.66-6.93,1.16-12.24,1.73-18.23Zm-14.52-13-1.32.86C97.26,572,110,586.73,125,601.27c.58-6.79.62-6.83-1.8-8.92A139,139,0,0,1,95.5,560.17C94,557.79,92.28,555.55,90.66,553.25Z"/><path class="cls-2" d="M92.1,475.31c-8-3.22.69-7.58-2-11.23-2.64.08-3.15,2.33-4.09,4s-1.87,3.42-5,1.92l0-7.88-1.41-.37L76,470.62l-5.71-9.11c-2.8,3.38.32,5.91-.31,9.08-10,7.61-10.21,18.09-7.61,29.19a58,58,0,0,0,18.19,31.06,38.88,38.88,0,0,0,10.54,6.63c9.57,4,17.59.61,21.11-8.55,2.29-5.94,2.07-12,.77-18.11-.74-3.42-1.67-6.81-2.68-10.9,3-1.43,5.75-3.19,8.75-4,7.79-2.18,13.63,1.46,14.33,9.06a92.62,92.62,0,0,1,.16,16.23c-1.29,15.44-2.95,30.86-4.54,47.15-9.58-2.74-18.07-4.76-26.18-7.69-3-1.07-5.12-4.2-7.4-6.6-2.7-2.83-4-7-9.7-8.24l0,10.54L50.35,546.18c-2.39-.69-4.74-1.53-7.17-2.13-6.29-1.55-7.45-3.07-6-9,2.06-8.22,4.83-16.33,6.36-24.64,3.26-17.64,9.42-34.56,14-51.85,4.45-16.6,7-33.63,11.61-50.19a370.13,370.13,0,0,1,14-40.16c4.26-10.53,9.94-20.55,14.87-30.85,2.24-4.69,6.06-6.94,11.34-6.53a119.12,119.12,0,0,1,16.36,2.19c22.75,5,45.27,11.06,68.2,15.26,30.11,5.51,59.95,12,89.83,18.5,20.3,4.42,41.11,6.79,61.46,11,20.59,4.28,40.87,9.87,61.36,14.62,11,2.54,22,4.55,33.08,6.75,2.7.54,5.48.79,8.18,1.35,8.28,1.72,11.36,4.75,11.13,12.63-.27,9.39-1.26,18.77-2.17,28.13-1.51,15.38-7.11,29.7-13.3,43.89-3,6.95-5.38,14.17-8.22,21.2-11.89,29.46-23.83,58.88-38,87.48-3.79,7.64-6.43,15.79-9.56,23.72-2.78,7-4.5,7.85-12.4,6.49-7.06-1.21-14.17-2.18-22.16-3.39,3.2-3.54,5.82-6.06,7.89-8.92.8-1.11,1-3.46.29-4.41a5.12,5.12,0,0,0-4.55-1.13,39,39,0,0,0-9.74,5.25c-6.09,4.83-12.3,6-20.15,3.87s-16.21-2.8-24.89-4.2c.43-2.22.41-4.13,1.17-5.72,4.87-10.32,9.15-21,15.08-30.74a55.15,55.15,0,0,1,33.44-25c3.28-.9,6.74-1.19,11-1.92-.31,3-.58,5-.69,7-.62,10.6,6.73,17,18,15.32a32,32,0,0,0,9.25-2.85,47.3,47.3,0,0,0,24.43-26.75c2.3-6.21,2.42-12.51-1.6-18.24l3.13-7.66c-3.69,1.9-6.38,4.5-8.55,4.16-4.56-.7.42-5-1.91-7.06a3.38,3.38,0,0,0-.75-.31c-3.67.81-1.9,8.23-8.11,6.1-.83-2.26-1.65-4.52-2.57-7-4.39,2.52-1.16,5.61-2.2,8.61L379,526.21c-.56,0-1.19.18-1.53,0-12.66-8.22-25.75-6.53-38.82-1.15-16.14,6.63-30,16.41-42.4,28a98.68,98.68,0,0,1-27.69,18.17c-21.28,9.48-41,6.48-60-5.26-18.35-11.34-28-28.12-32.47-47.47-3.84-16.7-10.25-32.42-17.43-47.94-5.92-12.8-23-19.58-38.11-15.83-10.24,2.55-17.81,8.55-24.41,15.9C94.88,472,93.65,473.51,92.1,475.31Z"/><path class="cls-3" d="M374.81,529.6c-3.45,4.79-6.81,9.44-10.24,14.21-26.48,1.33-43.08,15.75-54.63,36.68-9.08,16.46-15,33.77-17,52.3a76.8,76.8,0,0,1-9,29H263.15c7-6.25,13.52-10.94,18.52-17.16-1.1-.89-1.59-1.65-2.16-1.7-9.78-.9-15.92-7.2-22.79-12.73A75.4,75.4,0,0,0,240,619.74c-7.46-3.27-15.58-3.61-23.31.27-8.59-7.91-18.74-8.69-29.66-7.06-7.44,1.12-15,2.6-22.45,2.39-8.15-.23-16.23-2.22-25.07-3.55-1.19,1.89-.26,4.47.85,7.06,4,9.48,9.49,18.14,17.34,25.34,5.52,5,11.12,10,17.83,16-10.13,0-19,.15-27.88-.17-1.48-.06-3.2-2-4.25-3.38-8.72-11.74-12.3-25.14-13.35-39.13-1.47-19.57,1.07-38.94,3.73-58.35,2.2-16.06,3-32.3,4.25-48.47a25.9,25.9,0,0,0-.39-6.33c-1.85-11.15-11.92-16-23-11.07-2,.89-3.9,2-5.87,2.94L95.25,477.66c6.25-8.51,13.93-15.61,25.06-18.87,13-3.82,30.39,2.13,35.62,15.23,6.15,15.39,12.63,30.55,16.52,46.72,4.82,20,15.29,37.14,34.35,48.76,20.5,12.5,41.61,15.32,64.28,5a104.43,104.43,0,0,0,28.23-18.66C311,545,323.9,535.46,339.15,529.38c6.13-2.44,12.94-3.69,19.58-4.62C364.6,523.94,370.05,526,374.81,529.6Z"/><path class="cls-4" d="M267,644c-17.12,2.34-33.16,1.68-49.18.18-5.76-.54-11.47-1.43-17.21-2.13-19.07-2.35-35.13-10.84-50.17-21.41a26.35,26.35,0,0,1-2.65-2.78,27.18,27.18,0,0,1,4.39,0c10.56,2.28,21,.93,31.51-.64,2.73-.41,5.47-.83,8.23-1,9.11-.57,17.69.27,22.53,8.39.85.1,1.17.23,1.34.13,12.66-7.34,23.77-2.89,34,4.4C255.75,633.34,260.82,638.57,267,644Z"/><path class="cls-4" d="M147.45,624.23c9.94,5.26,18.76,10.17,27.81,14.66,10.86,5.38,22.91,6.94,34.9,8.29,19.53,2.2,39.12,3.15,58.74.55a46.13,46.13,0,0,1,4.66,0c-8.66,7.28-14.95,14.61-26.94,14.13-18.61-.74-37.26-.73-55.89-.82a18.58,18.58,0,0,1-12.37-4.17c-10.57-8.69-21.5-17-28.66-28.69C149.09,627.18,148.54,626.15,147.45,624.23Z"/><path class="cls-2" d="M65,489.47c.42-2.51.49-5.4,1.42-8,2.56-7.25,8.66-9.73,16.06-6.55a31.35,31.35,0,0,1,8.17,4.92c12.49,11,18.95,24.55,18.95,40.66a21,21,0,0,1-1.37,7.56c-2.52,6.4-7.48,8.62-14.35,6.38a25.29,25.29,0,0,1-7.78-4.09C72.82,519.73,66.23,506,65,489.47Zm14,11c.74,9.16,5.83,15.7,12.93,20.83a6.05,6.05,0,0,0,9.35-3.74A12.8,12.8,0,0,0,101,510a113.6,113.6,0,0,0-7.53-13.64,11,11,0,0,0-3.78-3.31c-4.29-2.53-7.81-1.44-9.57,2.92A27.31,27.31,0,0,0,79,500.49Z"/><path class="cls-2" d="M366.18,554.09a50.4,50.4,0,0,1,2.12-7.23c4.37-10.19,11.88-17.86,22.29-22.9a25.77,25.77,0,0,1,7.83-2.28c8.51-1.1,13.29,3.23,12.85,11.31-.75,13.89-16.69,30.8-31.45,33.37C371.5,567.81,366.1,563.6,366.18,554.09Zm30.91-13c.49-4.77-3-7.56-8-6.31-6.17,1.55-14.55,11.28-15,17.37-.31,4.52,3,7.12,7.6,6C388.18,556.51,396.44,547.33,397.09,541.05Z"/><path class="cls-3" d="M356.57,612.21C338.22,626,318,636.75,295.17,646c.56-3.38.88-5.33,1.06-6.44,11.09-4.3,21.8-7.71,31.73-12.53,9.66-4.69,18.52-10.83,27.73-16.34Z"/><path class="cls-3" d="M90.66,553.25c1.62,2.3,3.37,4.54,4.84,6.92a139,139,0,0,0,27.72,32.18c2.42,2.09,2.38,2.13,1.8,8.92C110,586.73,97.26,572,89.34,554.11Z"/><path class="cls-1" d="M79,500.49a27.31,27.31,0,0,1,1-4.48c1.76-4.36,5.28-5.45,9.57-2.92a11,11,0,0,1,3.78,3.31A113.6,113.6,0,0,1,101,510a12.8,12.8,0,0,1,.35,7.54A6.05,6.05,0,0,1,92,521.32C84.85,516.19,79.76,509.65,79,500.49Z"/><path class="cls-1" d="M397.09,541.05c-.65,6.28-8.91,15.46-15.34,17.05-4.61,1.13-7.91-1.47-7.6-6,.42-6.09,8.8-15.82,15-17.37C394.05,533.49,397.58,536.28,397.09,541.05Z"/><text class="cls-5" transform="translate(148.57 370.41) rotate(12.34)">La tasa de <tspan class="cls-6" x="119.77" y="0">mortalidad </tspan><tspan class="cls-7"><tspan x="-41.46" y="27.27">materna</tspan><tspan class="cls-8" x="57.04" y="27.27" xml:space="preserve"> ha </tspan><tspan x="97.29" y="27.27">disminuido</tspan><tspan class="cls-8" x="225.2" y="27.27" xml:space="preserve"> en un </tspan></tspan><tspan class="cls-9"><tspan x="72.3" y="87.05">37%</tspan><tspan class="cls-10" x="175.27" y="87.05"> </tspan></tspan><tspan x="49.32" y="114.32">desde el 2000.</tspan></text></svg>